<svg id="Layer_1" data-name="Layer 1" xmlns="http://www.w3.org/2000/svg" viewBox="0 0 200 200"><defs><style>.cls-1{fill:#231f20;}</style></defs><title>Wondicon - UI (Free)</title><path class="cls-1" d="M123.63,175.36A74,74,0,0,1,111,174.25C91.37,170.89,71.66,160.14,55.51,144S28.62,108.14,25.25,88.51c-3.47-20.27,1.27-38.09,13.36-50.18a5,5,0,0,1,7.07,0l26.4,26.4a5,5,0,0,1,0,7.07A35.9,35.9,0,0,0,61.67,98.38a40.25,40.25,0,0,0,12,27.47c15.33,15.34,39.58,16,54.05,1.57a5,5,0,0,1,7.07,0l26.4,26.4a5,5,0,0,1,0,7.07C151.67,170.4,138.62,175.36,123.63,175.36ZM42.39,49.18c-16.32,21.52-8,59.58,20.19,87.74,14.7,14.7,32.5,24.46,50.11,27.48,14.9,2.55,28.06,0,37.63-7.29L131,137.83a46.11,46.11,0,0,1-28.92,10A50.93,50.93,0,0,1,51.67,98.63a46,46,0,0,1,10-30.17Z"/><path class="cls-1" d="M68.55,73.27A5,5,0,0,1,65,71.8L38.61,45.4a5,5,0,0,1,0-7.07L51.82,25.12a5,5,0,0,1,7.07,0l26.4,26.41a5,5,0,0,1,0,7.07L72.08,71.8A5,5,0,0,1,68.55,73.27ZM49.22,41.87,68.55,61.2l6.13-6.14L55.35,35.73Z"/><path class="cls-1" d="M157.64,162.36a5,5,0,0,1-3.54-1.47l-26.4-26.4a5,5,0,0,1,0-7.07l13.21-13.21a5,5,0,0,1,7.07,0l26.4,26.41a5,5,0,0,1,0,7.07l-13.21,13.2A5,5,0,0,1,157.64,162.36ZM138.31,131l19.33,19.33,6.13-6.14-19.33-19.33Z"/><path class="cls-1" d="M125,105.21a5,5,0,0,1-5-5,19.81,19.81,0,0,0-19.79-19.79,5,5,0,0,1,0-10A29.82,29.82,0,0,1,130,100.21,5,5,0,0,1,125,105.21Z"/><path class="cls-1" d="M150,105.21a5,5,0,0,1-5-5,44.84,44.84,0,0,0-44.79-44.79,5,5,0,0,1,0-10A54.85,54.85,0,0,1,155,100.21,5,5,0,0,1,150,105.21Z"/><path class="cls-1" d="M171.1,105.21a5,5,0,0,1-5-5,66,66,0,0,0-65.89-65.9,5,5,0,1,1,0-10,76,76,0,0,1,75.89,75.9A5,5,0,0,1,171.1,105.21Z"/></svg>