<svg width="41" height="40" viewBox="0 0 41 40" fill="none" xmlns="http://www.w3.org/2000/svg">
<path d="M38.9473 13.0671H36.0365L28.4276 0L24.869 1.99547L31.3158 13.0671H9.68182L16.1306 1.99547L12.57 0L4.96105 13.0671H2.05029C1.41074 13.0671 0.810138 13.3608 0.420669 13.8576C0.0332506 14.3565 -0.0958886 15.0042 0.0721978 15.6077L5.80968 36.2544C6.29549 38.0004 7.92306 39.2174 9.76586 39.2174H31.2338C33.0745 39.2174 34.7021 38.0004 35.19 36.2503L40.9274 15.6057C41.0955 15.0022 40.9684 14.3545 40.579 13.8556C40.1874 13.3608 39.5868 13.0671 38.9473 13.0671ZM31.2317 35.1943V37.2058V35.1943H9.76586L4.73557 17.0902H36.262L31.2317 35.1943Z" fill="#00878E"/>
</svg>
