<?xml version="1.0" encoding="UTF-8"?>
<svg width="752pt" height="752pt" version="1.1" viewBox="0 0 752 752" xmlns="http://www.w3.org/2000/svg">
 <g>
  <path d="m361.2 302c0 4.0859-3.3125 7.3984-7.4023 7.3984-4.0859 0-7.3984-3.3125-7.3984-7.3984 0-4.0859 3.3125-7.3984 7.3984-7.3984 4.0898 0 7.4023 3.3125 7.4023 7.3984"/>
  <path d="m405.6 302c0 4.0859-3.3125 7.3984-7.4023 7.3984-4.0859 0-7.3984-3.3125-7.3984-7.3984 0-4.0859 3.3125-7.3984 7.3984-7.3984 4.0898 0 7.4023 3.3125 7.4023 7.3984"/>
  <path d="m360.43 320.89-13.238 6.6211 0.77734 1.5547c5.3398 10.695 16.086 17.332 28.035 17.332s22.695-6.6367 28.039-17.332l0.77734-1.5625-13.238-6.6211-0.77734 1.5703c-2.8203 5.6406-8.4883 9.1445-14.801 9.1445s-11.98-3.5078-14.801-9.1445z"/>
  <path d="m505.25 447.02c-1.7109-9.8281-5.5117-18.957-10.855-27.172v-154.84c0-65.281-53.113-118.39-118.39-118.39-65.281-0.003906-118.4 53.113-118.4 118.39v154.86c-5.3438 8.2148-9.1445 17.344-10.855 27.172l-27.535 158.36h313.58zm9.9492 143.57h-41.926l-13.082-75.238c2.9141-8.3867 4.6016-17.184 4.6016-26.133 0-12.285-2.9062-24.574-8.3984-35.562l-4.1289-8.2578 26.484-22.066c6.0664 7.6133 10.227 16.516 11.914 26.223zm-212.22-53.059 2.9805 4.9805c2.25 3.7461 3.4414 8.0391 3.4414 12.41 0 3.0781-0.57812 6.0977-1.7227 8.9531l-10.684 26.715h-3.2422zm15.672-2.6328-7.4297-12.387c-6.0273-10.055-9.2188-21.57-9.2188-33.293 0-9.9961 2.3594-20 6.8359-28.941l2.5664-5.1445 42.77 35.645c1.375 7.9492 6.9766 14.398 14.414 17.051l0.003906 82.762h-55.668l8.4883-21.215c1.8516-4.625 2.7891-9.4883 2.7891-14.453 0-7.0508-1.9219-13.977-5.5508-20.023zm-1.8477-188.5c0 4.0781-3.3164 7.3984-7.3984 7.3984-4.0859 0-7.3984-3.3242-7.3984-7.3984 0-4.0781 3.3164-7.3984 7.3984-7.3984s7.3984 3.3203 7.3984 7.3984zm38.914-152.5 3.8555 19.305c-2.375 2.6328-4.1133 5.8164-5.0156 9.3516-2.6719 0.74609-5.2695 1.6719-7.7344 2.8047l-17.617-17.625c7.6953-6.2969 16.699-11.031 26.512-13.836zm67.078 13.844-17.617 17.625c-2.4648-1.1328-5.0547-2.0664-7.7344-2.8047-0.90234-3.5352-2.6406-6.7188-5.0156-9.3516l3.8633-19.305c9.8047 2.7969 18.809 7.5312 26.504 13.836zm-25.535 57.262c-1.6562-7.2227-5.3203-13.727-8.7969-18.641 3.2188-2.1914 5.7773-5.2461 7.4805-8.7852 12.18 4.3438 21.105 14.77 23.664 27.422zm-42.52 0h-22.348c2.5547-12.652 11.484-23.078 23.664-27.422 1.7109 3.5352 4.2617 6.5938 7.4805 8.7852-3.4688 4.9102-7.1406 11.414-8.7969 18.637zm-37.938 14.797c-5.418 0-10.426 1.5703-14.801 4.1133v-18.91c0-3.7148 0.36328-7.3398 0.89453-10.906l15.375 6.1484c-0.92969 3.9062-1.4688 7.9688-1.4688 12.156zm66.598-51.797c0 3.1758-2.0352 5.8398-4.8555 6.8828l-2.5469-2.5469-2.5469 2.5469c-2.8164-1.043-4.8516-3.707-4.8516-6.8828 0-4.0781 3.3164-7.3984 7.3984-7.3984 4.0859 0 7.4023 3.3203 7.4023 7.3984zm-7.4023 26.352c3.625 5.0547 7.3984 11.906 7.3984 18.047 0 4.0781-3.3164 7.3984-7.3984 7.3984-4.0859 0-7.3984-3.3242-7.3984-7.3984 0-6.1406 3.7734-12.996 7.3984-18.047zm74 10.648v18.914c-4.375-2.5469-9.3828-4.1172-14.801-4.1172v-7.3984c0-4.1875-0.53906-8.25-1.4727-12.156l15.375-6.1484c0.53516 3.5625 0.89844 7.1914 0.89844 10.906zm0 81.395c0 4.0781-3.3164 7.3984-7.3984 7.3984-4.0859 0-7.3984-3.3242-7.3984-7.3984 0-4.0781 3.3164-7.3984 7.3984-7.3984 4.082 0 7.3984 3.3203 7.3984 7.3984zm-14.801-22.199h-0.51172c0.30469-2.4258 0.51172-4.8906 0.51172-7.3984v-22.199c8.1602 0 14.801 6.6367 14.801 14.801 0 8.1602-6.6406 14.797-14.801 14.797zm-6.9102-77.727c-2.7734-4.8164-6.3281-9.1328-10.477-12.816l15.449-15.457c5.1953 6.3398 9.2852 13.586 12.156 21.422zm-49.527-40.387c-0.91797-0.11719-1.8125-0.28125-2.7617-0.28125-0.94531 0-1.8438 0.16406-2.7617 0.28125l-2.9609-14.793c1.8984-0.14844 3.793-0.28906 5.7227-0.28906s3.8242 0.14063 5.7109 0.28906zm-60.02 12.121 15.449 15.457c-4.1523 3.6836-7.7031 8-10.477 12.816l-17.129-6.8516c2.8711-7.8359 6.9609-15.082 12.156-21.422zm-1.9375 76.395v22.199c0 2.5078 0.20703 4.9727 0.51172 7.3984h-0.51172c-8.1602 0-14.801-6.6367-14.801-14.801 0-8.1602 6.6367-14.797 14.801-14.797zm14.797-14.801h23.562c3.0625 8.5898 11.203 14.801 20.836 14.801s17.773-6.207 20.836-14.801h23.562v37c0 24.484-19.914 44.398-44.398 44.398s-44.398-19.914-44.398-44.398zm44.398 96.195c2.5078 0 4.9727-0.20703 7.3984-0.51172v29.836c-1.4766 0.15625-2.9648 0.27734-4.4727 0.27734h-5.8398c-1.5156 0-3.0039-0.12109-4.4844-0.27344v-29.836c2.4258 0.30078 4.8906 0.50781 7.3984 0.50781zm22.199-4.3555c0.875-0.35547 1.7148-0.74609 2.5664-1.1406 2.7148 9.0859 6.9688 16.125 10.211 20.477-3.6055 4.1602-7.9609 7.5039-12.773 9.9609l0.003906-29.297zm-44.398 0v29.289c-4.8164-2.457-9.168-5.8008-12.773-9.9609 3.2422-4.3516 7.4961-11.387 10.211-20.477 0.84766 0.39844 1.6914 0.79297 2.5625 1.1484zm-25.371 27.184c10.809 13.551 27.125 21.57 44.648 21.57h5.8398c17.531 0 33.84-8.0195 44.648-21.57l9.0586 1.5078-53.035 64.82c-1.168-0.1875-2.3594-0.35938-3.5898-0.35938-1.2266 0-2.418 0.17188-3.5977 0.36328l-53.035-64.82zm65.863 75.625c-0.47266-0.6875-1.043-1.2969-1.5898-1.9258l56.402-68.938c6.8906 1.9453 13.328 5.0312 19.039 9.3242zm-18.293 19.945c-4.0859 0-7.3984-3.3242-7.3984-7.3984 0-4.0781 3.3164-7.3984 7.3984-7.3984 4.0859 0 7.3984 3.3242 7.3984 7.3984 0.003906 4.0742-3.3125 7.3984-7.3984 7.3984zm-73.102-90.812 56.402 68.938c-0.54688 0.62891-1.1172 1.2344-1.5898 1.9258l-73.848-61.543c5.7109-4.2812 12.148-7.3711 19.035-9.3203zm80.504 104.25c7.4375-2.6484 13.039-9.1016 14.414-17.051l42.77-35.645 2.5664 5.1445c4.4844 8.9375 6.8477 18.941 6.8477 28.938 0 11.723-3.1875 23.234-9.2188 33.297l-7.4297 12.379c-3.6289 6.0508-5.5508 12.977-5.5508 20.027 0 4.9648 0.94141 9.8359 2.7812 14.461l8.4883 21.207h-55.668zm60.922 56.051c-1.1484-2.8711-1.7266-5.8828-1.7266-8.9609 0-4.3672 1.1914-8.6562 3.4414-12.41l2.9805-4.9805 9.2305 53.059h-3.2422zm35.273-298.88v138.08c-9.8711-8.1328-21.602-13.52-34.355-15.645l-21.039-3.5078c-2.6406-3.2422-8.207-11.105-10.336-21.68 2.9141-2.4336 5.6016-5.1484 8-8.0938 3.1641 8.4102 11.23 14.441 20.73 14.441 12.238 0 22.199-9.9609 22.199-22.199 0-6.8086-3.1445-12.84-7.9922-16.914 4.9219-5.2852 7.9922-12.316 7.9922-20.086v-44.398c0-38.219-24.324-70.785-58.266-83.277l13.297-10.457c35.246 16.559 59.77 52.289 59.77 93.738zm-76.039-99.766-15.16 11.93c-4.0664-0.5625-8.1797-0.96094-12.398-0.96094s-8.332 0.39844-12.395 0.96875l-15.16-11.93c8.7891-2.4336 18.004-3.8398 27.555-3.8398 9.5547 0 18.766 1.4062 27.559 3.832zm-71.387 6.0312 13.297 10.457c-33.941 12.488-58.266 45.055-58.266 83.277v44.398c0 7.7695 3.0703 14.801 7.9922 20.082-4.8438 4.0742-7.9922 10.105-7.9922 16.914 0 12.238 9.9609 22.199 22.199 22.199 9.5 0 17.566-6.0312 20.727-14.445 2.4062 2.9453 5.082 5.6602 8 8.0938-2.125 10.59-7.6953 18.449-10.336 21.68l-21.039 3.5078c-12.75 2.125-24.484 7.5195-34.355 15.645v-138.07c0.007812-41.449 24.531-77.18 59.773-93.734zm-70.836 278.29c1.6875-9.707 5.8398-18.609 11.914-26.223l26.484 22.066-4.1289 8.2578c-5.4922 10.977-8.4023 23.277-8.4023 35.559 0 8.9453 1.6875 17.746 4.6094 26.129l-13.082 75.242h-41.926z"/>
 </g>
</svg>
