<svg width="22" height="27" viewBox="0 0 22 27" fill="none" xmlns="http://www.w3.org/2000/svg">
<path d="M1.22232 10.7545H1.22233V10.7488C1.22233 5.52645 5.58342 1.22222 11 1.22222C16.4161 1.22222 20.7777 5.52596 20.7777 10.7556L20.7777 10.7612C20.7954 14.6015 18.3276 18.3363 15.6215 21.235C14.2929 22.6581 12.9591 23.8243 11.956 24.6351C11.5828 24.9368 11.2568 25.1881 10.9956 25.3841C9.99749 24.6469 8.09551 23.1466 6.2247 21.1284C3.58017 18.2756 1.20459 14.6083 1.22232 10.7545Z" stroke="#00878E" stroke-width="2.44444"/>
<mask id="path-2-inside-1" fill="white">
<path d="M4.88892 12.6478L9.23957 17.111L17.1111 9.03572L15.4516 7.33325L9.23957 13.7061L6.54844 10.9453L4.88892 12.6478Z"/>
</mask>
<path d="M4.88892 12.6478L9.23957 17.111L17.1111 9.03572L15.4516 7.33325L9.23957 13.7061L6.54844 10.9453L4.88892 12.6478Z" fill="white"/>
<path d="M9.23957 17.111L7.48915 18.8173L9.23957 20.613L10.99 18.8173L9.23957 17.111ZM4.88892 12.6478L3.13849 10.9415L1.47528 12.6478L3.13849 14.354L4.88892 12.6478ZM6.54844 10.9453L8.29886 9.23903L6.54844 7.44329L4.79801 9.23902L6.54844 10.9453ZM9.23957 13.7061L7.48915 15.4123L9.23957 17.2081L10.99 15.4123L9.23957 13.7061ZM15.4516 7.33325L17.202 5.62699L15.4516 3.83126L13.7012 5.62699L15.4516 7.33325ZM17.1111 9.03572L18.8616 10.742L20.5248 9.03572L18.8616 7.32946L17.1111 9.03572ZM10.99 15.4048L6.63934 10.9415L3.13849 14.354L7.48915 18.8173L10.99 15.4048ZM6.63934 14.354L8.29886 12.6515L4.79801 9.23902L3.13849 10.9415L6.63934 14.354ZM4.79801 12.6515L7.48915 15.4123L10.99 11.9998L8.29886 9.23903L4.79801 12.6515ZM10.99 15.4123L17.202 9.03951L13.7012 5.62699L7.48915 11.9998L10.99 15.4123ZM13.7012 9.03951L15.3607 10.742L18.8616 7.32946L17.202 5.62699L13.7012 9.03951ZM15.3607 7.32946L7.48915 15.4048L10.99 18.8173L18.8616 10.742L15.3607 7.32946Z" fill="#00878E" mask="url(#path-2-inside-1)"/>
</svg>
