<svg xmlns="http://www.w3.org/2000/svg" xmlns:xlink="http://www.w3.org/1999/xlink" version="1.1" width="65" height="65" xml:space="preserve" style=""><rect id="backgroundrect" width="100%" height="100%" x="0" y="0" fill="none" stroke="none"/>
<desc>Created with Fabric.js 3.6.2</desc>
<defs>
</defs>


<g class="currentLayer" style=""><title>Layer 1</title><g id="f_1_" class="selected" fill="#ffffff" fill-opacity="1">
<path style="stroke: none; stroke-width: 1; stroke-dasharray: none; stroke-linecap: butt; stroke-dashoffset: 0; stroke-linejoin: miter; stroke-miterlimit: 4; fill-rule: nonzero; opacity: 1;" d="M220,204 l4,-20 l-20,0 v-16 c0,-6 3.2,-8 12,-8 h8 v-20 c0,0 -8,0 -16,0 c-16.4,0 -28,9.6 -28,28 v16 h-20 v20 h20 v56 h24 V204 H220 z" stroke-linecap="round" stroke-width="0" id="svg_1" fill="#ffffff" fill-opacity="1"/>
</g><g id="Layer_1" class="" fill="#ffffff" fill-opacity="1">
<path style="stroke: none; stroke-width: 1; stroke-dasharray: none; stroke-linecap: butt; stroke-dashoffset: 0; stroke-linejoin: miter; stroke-miterlimit: 4; fill-rule: nonzero; opacity: 1;" d="M200,104 C146.8,104 104,146.8 104,200 s42.8,96 96,96 s96,-42.8 96,-96 S253.2,104 200,104 zM200,276 C158,276 124,242 124,200 S158,124 200,124 s76,34 76,76 S242,276 200,276 z" stroke-linecap="round" stroke-width="0" id="svg_2" fill="#ffffff" fill-opacity="1"/>
</g></g></svg>