<svg width="26" height="28" viewBox="0 0 26 28" fill="none" xmlns="http://www.w3.org/2000/svg">
<path d="M13 0.833374C9.09425 0.833374 5.91667 4.01096 5.91667 7.91671C5.91667 11.8225 9.09425 15 13 15C16.9058 15 20.0833 11.8225 20.0833 7.91671C20.0833 4.01096 16.9058 0.833374 13 0.833374ZM13 12.1667C10.6568 12.1667 8.75 10.2599 8.75 7.91671C8.75 5.57354 10.6568 3.66671 13 3.66671C15.3432 3.66671 17.25 5.57354 17.25 7.91671C17.25 10.2599 15.3432 12.1667 13 12.1667ZM25.75 27.75V26.3334C25.75 20.8665 21.3002 16.4167 15.8333 16.4167H10.1667C4.69833 16.4167 0.25 20.8665 0.25 26.3334V27.75H3.08333V26.3334C3.08333 22.4276 6.26092 19.25 10.1667 19.25H15.8333C19.7391 19.25 22.9167 22.4276 22.9167 26.3334V27.75H25.75Z" fill="#494948"/>
</svg>
