<svg width="26" height="26" viewBox="0 0 26 26" fill="none" xmlns="http://www.w3.org/2000/svg">
<path d="M18.937 26C18.9435 26 18.9669 26 18.9734 26C19.6599 26 20.3086 25.7296 20.8 25.2382L24.3258 21.7124C24.8341 21.2041 24.8341 20.3824 24.3258 19.8741L19.1255 14.6738C18.6172 14.1655 17.7956 14.1655 17.2872 14.6738L15.2149 16.7461C14.2542 16.4601 12.4614 15.8101 11.3251 14.6738C10.1889 13.5376 9.53886 11.7448 9.25284 10.784L11.3251 8.71174C11.8335 8.20341 11.8335 7.38177 11.3251 6.87344L6.12489 1.67318C5.63736 1.18566 4.77412 1.18566 4.28659 1.67318L0.762119 5.19896C0.268095 5.69298 -0.010119 6.37162 0.000281522 7.06455C0.030183 8.91584 0.520307 15.346 5.58796 20.4136C10.6556 25.4813 17.0857 25.9701 18.937 26ZM5.20704 4.43062L8.56901 7.79259L6.88802 9.47357C6.57731 9.78299 6.4447 10.2302 6.53571 10.6592C6.56691 10.8087 7.33005 14.354 9.48815 16.5121C11.6463 18.6702 15.1915 19.4334 15.341 19.4646C15.774 19.5556 16.2173 19.423 16.5267 19.1123L18.2077 17.4313L21.5697 20.7932L18.9617 23.3999C17.3392 23.3726 11.788 22.937 7.42625 18.574C3.05023 14.198 2.62641 8.62723 2.60041 7.03725L5.20704 4.43062ZM23.4002 11.6993H26.0003C26.0003 5.02995 20.9651 0 14.2867 0V2.60013C19.5676 2.60013 23.4002 6.42622 23.4002 11.6993Z" fill="#494948"/>
<path d="M14.2997 7.80032C17.0337 7.80032 18.1999 8.96648 18.1999 11.7005H20.8C20.8 7.50781 18.4924 5.2002 14.2997 5.2002V7.80032Z" fill="#494948"/>
</svg>
