<svg xmlns="http://www.w3.org/2000/svg" xmlns:xlink="http://www.w3.org/1999/xlink" version="1.1" width="60" height="60" xml:space="preserve" style=""><rect id="backgroundrect" width="100%" height="100%" x="0" y="0" fill="none" stroke="none" class="" style=""/>
<desc>Created with Fabric.js 3.6.2</desc>
<defs>
</defs>


<g class="currentLayer" style=""><title>Layer 1</title><g id="VK_1_" class="" fill="#ffffff" fill-opacity="1">
<path style="stroke: none; stroke-width: 1; stroke-dasharray: none; stroke-linecap: butt; stroke-dashoffset: 0; stroke-linejoin: miter; stroke-miterlimit: 4; fill-rule: nonzero; opacity: 1;" d="M30.587462902069092,38.57746362686157 c1,0 1,-1.4 1,-2 c0,-1 1,-2 2,-2 s2.7,1.7000000000000002 4,3 c1,1 1,1 2,1 s3,0 3,0 s2,-0.1 2,-2 c0,-0.6000000000000004 -0.7000000000000004,-1.7000000000000002 -3,-4 c-2,-2 -3,-1 0,-5 c1.8,-2.5 3.2,-4.7 3,-5.3 c-0.2,-0.6000000000000004 -5.3,-1.6 -6,-0.7000000000000004 c-2,3 -2.4,3.7 -3,5 c-1,2 -1.1,3 -2,3 c-0.9,0 -1,-1.9 -1,-3 c0,-3.3 0.5,-5.6 -1,-6 c0,0 -2,0 -3,0 c-1.6,0 -3,1 -3,1 s-1.2,1 -1,1 c0.3000000000000002,0 2,-0.4 2,1 c0,1 0,2 0,2 s0,4 -1,4 c-1,0 -3,-4 -5,-7 c-0.8,-1.2 -1,-1 -2,-1 c-1.1,0 -2,0 -3,0 c-1,0 -1.1,0.6000000000000004 -1,1 c2,5 3.4,8.1 7.2,12.1 c3.5,3.6 5.8,3.8 7.8,3.9 C30.087462902069092,38.57746362686157 29.587462902069092,38.57746362686157 30.587462902069092,38.57746362686157 z" stroke-linecap="round" id="svg_1" fill="#ffffff" fill-opacity="1"/>
</g><g id="Layer_1" class="selected">
<path style="stroke: none; stroke-width: 1; stroke-dasharray: none; stroke-linecap: butt; stroke-dashoffset: 0; stroke-linejoin: miter; stroke-miterlimit: 4; fill: rgb(255,255,255); fill-rule: nonzero; opacity: 1;" d="M29.577462673187256,5.577463626861572 C16.277462673187255,5.577463626861572 5.577462673187257,16.27746362686157 5.577462673187257,29.577463626861572 s10.7,24 24,24 s24,-10.7 24,-24 S42.87746267318725,5.577463626861572 29.577462673187256,5.577463626861572 zM29.577462673187256,48.57746362686157 C19.077462673187256,48.57746362686157 10.577462673187256,40.07746362686157 10.577462673187256,29.577463626861572 S19.077462673187256,10.577463626861572 29.577462673187256,10.577463626861572 s19,8.5 19,19 S40.077462673187256,48.57746362686157 29.577462673187256,48.57746362686157 z" stroke-linecap="round" id="svg_2"/>
</g></g></svg>