<svg id="Layer_1" data-name="Layer 1" xmlns="http://www.w3.org/2000/svg" viewBox="0 0 416.44 148.11"><defs><style>.cls-1{fill:#575756;}</style></defs><path class="cls-1" d="M56.54,38.91h7.79a.92.92,0,1,0,0-1.84H56.54a.92.92,0,1,0,0,1.84Zm3.89,68.25a4.06,4.06,0,1,0,4.05,4.06A4.06,4.06,0,0,0,60.43,107.16Zm-19.87-3.47H80.31V44.91H40.56ZM168,84.39a7.92,7.92,0,0,0-5.13,1.87,8.75,8.75,0,0,0-3,4.93,9.8,9.8,0,0,0-.35,2.34v5.72a9.14,9.14,0,0,0,2.29,6.34,7.67,7.67,0,0,0,6,2.58,7.8,7.8,0,0,0,6.72-3.33,14.59,14.59,0,0,0,2.4-8.78,14.08,14.08,0,0,0-2.26-8.27A7.86,7.86,0,0,0,168,84.39Zm139.37-.48a7.65,7.65,0,0,0-7,4.09,15.46,15.46,0,0,0-2.06,8.24,15.24,15.24,0,0,0,2.06,8.12,7.69,7.69,0,0,0,6.93,4.08,7.59,7.59,0,0,0,6.85-4.17,15.17,15.17,0,0,0,2.13-8.16,15.41,15.41,0,0,0-2-8.11A7.59,7.59,0,0,0,307.36,83.91Zm-101.59.48a7.89,7.89,0,0,0-5.12,1.87,8.83,8.83,0,0,0-3,4.93,10.24,10.24,0,0,0-.34,2.34v5.72a9.14,9.14,0,0,0,2.29,6.34,7.66,7.66,0,0,0,6,2.58,7.79,7.79,0,0,0,6.73-3.33,14.59,14.59,0,0,0,2.42-8.78,14.16,14.16,0,0,0-2.27-8.27A7.89,7.89,0,0,0,205.77,84.39Zm-79-12.3h-.14c-.48,2-1.22,5-2.27,9l-4,12.46h12.8l-4-12.46Q128.58,79.15,126.82,72.09ZM365.31,83.54a7.29,7.29,0,0,0-6.08,3.13A11.27,11.27,0,0,0,357,92.59h15.92a10.51,10.51,0,0,0-1.48-5.86A6.72,6.72,0,0,0,365.31,83.54ZM160.51,49.61a3,3,0,0,0,.11-1V46.19c-3.16,0-6.18.62-6.18,3.31A2.35,2.35,0,0,0,157,52,3.66,3.66,0,0,0,160.51,49.61ZM118.82,38.48c-.47-1.49-.87-3.17-1.24-4.58h-.07c-.36,1.41-.76,3.12-1.16,4.58l-1.89,6h6.29Zm253.54-1.75c5.75,0,7.64,4.73,7.64,8.62a11.38,11.38,0,0,1-.14,1.89H368c.11,3.2,2.58,4.58,5.45,4.58a14.06,14.06,0,0,0,4.91-.8l.66,3.06a16,16,0,0,1-6.18,1.13c-5.75,0-9.13-3.53-9.13-9C363.71,41.35,366.69,36.73,372.36,36.73Zm-71,.4.21,2.66h.11a6.49,6.49,0,0,1,5.68-3.06c3.09,0,6.29,2,6.29,7.6V54.84h-4.47v-10c0-2.54-.95-4.47-3.39-4.47A3.75,3.75,0,0,0,302.33,43a4,4,0,0,0-.22,1.42V54.84h-4.47V42.41c0-2-.07-3.75-.15-5.28Zm-47-.4c5.75,0,7.64,4.73,7.64,8.62a11.38,11.38,0,0,1-.14,1.89H250.05c.11,3.2,2.58,4.58,5.45,4.58a14.06,14.06,0,0,0,4.91-.8l.66,3.06a16,16,0,0,1-6.18,1.13c-5.75,0-9.13-3.53-9.13-9C245.76,41.35,248.74,36.73,254.41,36.73ZM236.08,29h4.47V54.84h-4.47ZM200.61,39.9a9.33,9.33,0,0,0-4.77,1.31L195,38.3a12.75,12.75,0,0,1,6.4-1.57c5.67,0,7.31,3.6,7.31,7.49v6.37a23.66,23.66,0,0,0,.29,4.25h-4l-.32-2h-.11a6.49,6.49,0,0,1-5.24,2.36A5.25,5.25,0,0,1,193.7,50c0-4.44,4-6.73,10.51-6.69V43C204.21,41.82,203.73,39.9,200.61,39.9ZM174.16,29.75a2.42,2.42,0,1,1,0,4.84,2.37,2.37,0,0,1-2.47-2.4A2.39,2.39,0,0,1,174.16,29.75Zm2.22,7.38V54.84h-4.47V37.13Zm-61.52-6.8h5.71l8,24.51h-4.84l-2.21-6.94h-7.75l-2.11,6.94H107ZM85.07,111.61a7.84,7.84,0,0,1-7.84,7.82H43.64a7.84,7.84,0,0,1-7.84-7.82V37a7.84,7.84,0,0,1,7.84-7.83H77.23A7.84,7.84,0,0,1,85.07,37Zm54,1.79-4.45-14h-15.5l-4.25,14h-7.92l15.34-47.68h9.49L147.2,113.4Zm1.74-58.56h-4.41l-6.58-17.71h4.84l2.87,9c.51,1.56.87,3,1.2,4.43h.11c.33-1.45.73-2.84,1.2-4.43l2.84-9h4.69ZM150,50c0-4.44,4-6.73,10.51-6.69V43c0-1.17-.47-3.09-3.6-3.09a9.32,9.32,0,0,0-4.76,1.31l-.87-2.91a12.72,12.72,0,0,1,6.4-1.57c5.67,0,7.31,3.6,7.31,7.49v6.37a23.66,23.66,0,0,0,.29,4.25h-4l-.33-2h-.11a6.47,6.47,0,0,1-5.23,2.36A5.26,5.26,0,0,1,150,50Zm29.92,59.69a14,14,0,0,1-10.6,4.52c-4.56,0-7.83-1.62-9.81-4.89v18.06h-7.64v-37c0-3.68-.1-7.44-.29-11.3h6.72l.42,5.44h.14c2.56-4.09,6.42-6.14,11.61-6.14a12.76,12.76,0,0,1,10.16,4.81c2.7,3.2,4.07,7.43,4.07,12.66C184.7,101.66,183.11,106.26,179.92,109.66Zm8-54.82H183.4V29h4.47Zm29.83,54.82a14,14,0,0,1-10.6,4.52c-4.55,0-7.83-1.62-9.81-4.89v18.06h-7.64v-37c0-3.68-.1-7.44-.29-11.3h6.71l.44,5.44h.13c2.56-4.09,6.42-6.14,11.61-6.14a12.72,12.72,0,0,1,10.15,4.81c2.72,3.2,4.07,7.43,4.07,12.66C222.47,101.66,220.88,106.26,217.7,109.66Zm5.24-54.42a6.09,6.09,0,0,1-5.6-3.05h-.07l-.22,2.65h-3.82c.08-1.2.15-3.16.15-5V29h4.47V39.57h.07a6.41,6.41,0,0,1,5.68-2.84c4.33,0,7.42,3.6,7.38,9C231,52.08,226.94,55.24,222.94,55.24Zm38.46,54.69c-3.12,2.79-7.44,4.17-13,4.17-5.14,0-9.25-1-12.36-3l1.78-6.36a21.32,21.32,0,0,0,11,3,10.53,10.53,0,0,0,6.73-1.94,6.4,6.4,0,0,0,2.4-5.22,6.7,6.7,0,0,0-2-4.87A18.8,18.8,0,0,0,249.42,92q-12.51-4.65-12.51-13.64a12,12,0,0,1,4.41-9.63C244.26,66.27,248.17,65,253,65a23.3,23.3,0,0,1,10.83,2.26l-1.93,6.23a18.87,18.87,0,0,0-9.15-2.2,9.49,9.49,0,0,0-6.32,2,5.71,5.71,0,0,0-1.91,4.33,5.91,5.91,0,0,0,2.19,4.68A25.42,25.42,0,0,0,253.66,86c4.12,1.64,7.13,3.59,9.07,5.81a12.15,12.15,0,0,1,2.9,8.27A12.74,12.74,0,0,1,261.4,109.93Zm26.94-25.19h-8.43v16.71c0,4.25,1.49,6.35,4.47,6.35a14.12,14.12,0,0,0,3.39-.33l.21,5.78a17.08,17.08,0,0,1-5.94.86,9.12,9.12,0,0,1-7.07-2.76c-1.71-1.83-2.56-4.93-2.56-9.27V84.74h-5V79h5v-6.3l7.5-2.26V79h8.43ZM284,55.24c-5,0-8.88-3.42-8.88-9.12s3.82-9.39,9.17-9.39,8.8,3.71,8.8,9.09C293.12,52.34,288.54,55.24,284,55.24ZM319.69,109a16.23,16.23,0,0,1-12.59,5.22q-7.59,0-12.09-5a18.31,18.31,0,0,1-4.48-12.67c0-5.32,1.54-9.69,4.63-13.08s7.25-5.09,12.48-5.09c5.07,0,9.12,1.66,12.18,5s4.38,7.44,4.38,12.58C324.2,101.23,322.7,105.55,319.69,109Zm7.89-71.83h2.51V33.82l4.4-1.23v4.54h4.25v3.35h-4.25V48.3c0,2.18.58,3.27,2.29,3.27a6.06,6.06,0,0,0,1.75-.18l.07,3.38a9.94,9.94,0,0,1-3.23.47,5.11,5.11,0,0,1-3.86-1.45c-1-1-1.42-2.66-1.42-5V40.48h-2.51Zm19.61,48.6a14.15,14.15,0,0,0-2.4-.19,7.23,7.23,0,0,0-6.23,3,11.37,11.37,0,0,0-1.91,6.78v18H329V89.83c0-3.94-.07-7.55-.2-10.81h6.65l.28,6.58H336a11.61,11.61,0,0,1,3.82-5.44,9.17,9.17,0,0,1,5.53-1.83,12,12,0,0,1,1.89.12Zm1.16-41.51V54.84h-4.47V29h4.47V39.53h.07a6,6,0,0,1,2.22-2,6.33,6.33,0,0,1,3.1-.8c3,0,6.18,2,6.18,7.68V54.84h-4.48v-10c0-2.55-.94-4.51-3.41-4.51a3.71,3.71,0,0,0-3.49,2.51A3.88,3.88,0,0,0,348.35,44.22Zm31.54,53.84H357q.14,5.09,3.33,7.77a11.3,11.3,0,0,0,7.49,2.41,25,25,0,0,0,9.27-1.64l1.21,5.31A28.51,28.51,0,0,1,366.72,114q-8,0-12.55-4.7T349.6,96.71a19.81,19.81,0,0,1,4.24-13,14.72,14.72,0,0,1,12-5.51c5,0,8.71,1.84,11.25,5.51a18.59,18.59,0,0,1,3.05,10.84A19,19,0,0,1,379.89,98.06ZM222,40.22a4.15,4.15,0,0,0-4,3.28,4.81,4.81,0,0,0-.15,1.16v2.87a5.14,5.14,0,0,0,.11,1.06,4.09,4.09,0,0,0,4,3.13c2.81,0,4.51-2.22,4.51-5.82C226.43,42.77,224.94,40.22,222,40.22Zm32.2-.43c-2.76,0-3.93,2.51-4.11,4.33h7.78C257.87,42.48,257.14,39.79,254.16,39.79Zm30,.18c-3.16,0-4.44,3.09-4.44,6,0,3.43,1.71,6,4.41,6,2.54,0,4.32-2.48,4.32-6.08C288.5,43.17,287.27,40,284.21,40ZM198.13,49.5A2.35,2.35,0,0,0,200.68,52a3.68,3.68,0,0,0,3.53-2.43,3,3,0,0,0,.11-1V46.19C201.15,46.15,198.13,46.81,198.13,49.5Zm174-9.71c-2.77,0-3.93,2.51-4.11,4.33h7.78C375.82,42.48,375.09,39.79,372.11,39.79Z" transform="translate(0.24 -0.21)"/><path class="cls-1" d="M396.24,148.32H19.73a20,20,0,0,1-20-19.94V20.17a20,20,0,0,1,20-20H396.24a20,20,0,0,1,20,20V128.38A20,20,0,0,1,396.24,148.32ZM19.73,5.38A14.82,14.82,0,0,0,4.93,20.17V128.38a14.8,14.8,0,0,0,14.8,14.77H396.24A14.8,14.8,0,0,0,411,128.38V20.17a14.82,14.82,0,0,0-14.8-14.79Z" transform="translate(0.24 -0.21)"/></svg>