<?xml version="1.0" encoding="UTF-8"?>
<svg width="752pt" height="752pt" version="1.1" viewBox="0 0 752 752" xmlns="http://www.w3.org/2000/svg">
 <g>
  <path d="m489.08 456.7c-26.578 0-48.324 21.746-48.324 48.324s21.746 48.324 48.324 48.324 48.324-21.746 48.324-48.324-21.746-48.324-48.324-48.324zm0 67.656c-10.633 0-19.328-8.6992-19.328-19.328 0-10.633 8.6992-19.328 19.328-19.328 10.633 0 19.328 8.6992 19.328 19.328s-8.6992 19.328-19.328 19.328z"/>
  <path d="m566.88 270.17c-2.8984-3.3828-6.7656-5.8008-11.598-5.8008h-283.66l-13.047-54.605c-1.4492-6.7656-7.25-11.113-14.016-11.113h-47.84c-8.2148 0-14.496 6.2812-14.496 14.496 0 8.2148 6.2812 14.496 14.496 14.496h36.242l47.359 197.16c1.4492 6.7656 7.25 11.113 14.016 11.113h225.68c6.7656 0 12.562-4.3477 14.016-11.113l35.273-142.56c0.96484-4.3477 0-8.6953-2.418-12.078zm-57.988 136.76h-202.96l-27.062-113.56h258.05z"/>
  <path d="m313.66 456.7c-26.578 0-48.324 21.746-48.324 48.324s21.746 48.324 48.324 48.324c26.578 0 48.324-21.746 48.324-48.324s-21.746-48.324-48.324-48.324zm0 67.656c-10.633 0-19.328-8.6992-19.328-19.328 0-10.633 8.6992-19.328 19.328-19.328 10.633 0 19.328 8.6992 19.328 19.328s-8.6992 19.328-19.328 19.328z"/>
 </g>
</svg>
