<svg id="Layer_1" data-name="Layer 1" xmlns="http://www.w3.org/2000/svg" viewBox="0 0 416.2 139.42"><defs><style>.cls-1{fill:#575756;}.cls-2{fill:#5f5a5d;}</style></defs><path class="cls-1" d="M395.65,144h-375A20.64,20.64,0,0,1,.06,123.35V25.16A20.64,20.64,0,0,1,20.68,4.55h375a20.63,20.63,0,0,1,20.61,20.61v98.19A20.63,20.63,0,0,1,395.65,144ZM20.68,9.42A15.77,15.77,0,0,0,4.93,25.16v98.19A15.77,15.77,0,0,0,20.68,139.1h375a15.77,15.77,0,0,0,15.74-15.75V25.16A15.76,15.76,0,0,0,395.65,9.42Z" transform="translate(-0.06 -4.55)"/><path class="cls-2" d="M138.37,45.24H135.6a18.31,18.31,0,0,0-.78-3.23h-4a16.35,16.35,0,0,0-.82,3.23h-2.6c0-.22.68-2.07,2-5.53a42.71,42.71,0,0,0,2-5.72h3.26a47.41,47.41,0,0,0,1.83,5.64A49.51,49.51,0,0,1,138.37,45.24Zm-4-4.88a47.59,47.59,0,0,1-1.48-4.82h-.14q0,.33-1.53,4.82Z" transform="translate(-0.06 -4.55)"/><path class="cls-2" d="M149.51,45.24h-2.14A21,21,0,0,0,145,41.5a20.59,20.59,0,0,1-2.84-4.88H142a31.23,31.23,0,0,1,.21,3.42c0,1.42,0,3.16.12,5.2h-2.12c.08-1.78.13-3.74.13-5.88s-.05-3.89-.13-5.37h2.56a15.93,15.93,0,0,0,2.14,3.66,22.1,22.1,0,0,1,2.61,4.6h.13a32,32,0,0,1-.21-3.45c0-1.56,0-3.17-.12-4.81h2.16q-.12,2.15-.12,5.37T149.51,45.24Z" transform="translate(-0.06 -4.55)"/><path class="cls-2" d="M162,39.23a6.41,6.41,0,0,1-1.57,4.28,5.51,5.51,0,0,1-4.41,1.83c-.85,0-2,0-3.52-.1.07-1.74.11-3.7.11-5.88s0-3.89-.11-5.37H154l1.1,0,1,0q3.12,0,4.52,1.56A5.35,5.35,0,0,1,162,39.23Zm-2.36.37a4.11,4.11,0,0,0-1-2.79,3.65,3.65,0,0,0-2.95-1.14,9.58,9.58,0,0,0-1,.08c.06,1.15.09,2.35.09,3.61s0,2.74.08,4.09a5.4,5.4,0,0,0,1.12.12,3.28,3.28,0,0,0,2.76-1.16A4.47,4.47,0,0,0,159.67,39.6Z" transform="translate(-0.06 -4.55)"/><path class="cls-2" d="M173.57,45.24H171a16.58,16.58,0,0,0-1.54-3.77,2,2,0,0,0-1.73-.72h-1c0,1.48,0,3,.08,4.48h-2.4c.07-1.74.11-3.7.11-5.88s0-3.89-.11-5.37H166l1.09,0,1.52,0c2.65,0,4,.91,4,2.71a3,3,0,0,1-2.27,3v.13a2.67,2.67,0,0,1,1.53,1.36A29.44,29.44,0,0,1,173.57,45.24Zm-3.24-8c0-1.14-.73-1.72-2.21-1.72a6.77,6.77,0,0,0-1.43.13c.06.89.09,2,.09,3.49h.81C169.42,39.2,170.33,38.57,170.33,37.29Z" transform="translate(-0.06 -4.55)"/><path class="cls-2" d="M186,39.41a6.19,6.19,0,0,1-1.63,4.4,5.26,5.26,0,0,1-4,1.74A5.07,5.07,0,0,1,176.5,44,5.63,5.63,0,0,1,175,39.88a6.21,6.21,0,0,1,1.62-4.4,5.31,5.31,0,0,1,4-1.75,5.12,5.12,0,0,1,3.82,1.6A5.68,5.68,0,0,1,186,39.41Zm-2.39.25a4.45,4.45,0,0,0-.92-2.93,2.85,2.85,0,0,0-2.28-1.12,2.63,2.63,0,0,0-2.14,1.13,4.52,4.52,0,0,0-.89,2.86,4.43,4.43,0,0,0,.93,2.92,2.83,2.83,0,0,0,2.28,1.13,2.65,2.65,0,0,0,2.14-1.13A4.52,4.52,0,0,0,183.57,39.66Z" transform="translate(-0.06 -4.55)"/><path class="cls-2" d="M190.84,45.24H188.4c.07-1.78.11-3.74.11-5.88s0-3.89-.11-5.37h2.44c-.07,1.45-.11,3.24-.11,5.37S190.77,43.49,190.84,45.24Z" transform="translate(-0.06 -4.55)"/><path class="cls-2" d="M203.36,39.23a6.36,6.36,0,0,1-1.57,4.28,5.5,5.5,0,0,1-4.4,1.83c-.86,0-2,0-3.53-.1.08-1.74.11-3.7.11-5.88s0-3.89-.11-5.37h1.51l1.11,0,1,0c2.08,0,3.58.52,4.52,1.56A5.34,5.34,0,0,1,203.36,39.23ZM201,39.6a4.16,4.16,0,0,0-1-2.79,3.67,3.67,0,0,0-3-1.14,10,10,0,0,0-1,.08c.06,1.15.09,2.35.09,3.61s0,2.74.09,4.09a5.33,5.33,0,0,0,1.12.12,3.25,3.25,0,0,0,2.75-1.16A4.42,4.42,0,0,0,201,39.6Z" transform="translate(-0.06 -4.55)"/><path class="cls-2" d="M220,45.24h-2.77a17.8,17.8,0,0,0-.79-3.23h-4a16.79,16.79,0,0,0-.81,3.23H209c0-.22.67-2.07,2-5.53a43.43,43.43,0,0,0,2-5.72h3.27a47.41,47.41,0,0,0,1.83,5.64A49.51,49.51,0,0,1,220,45.24Zm-4-4.88a48.91,48.91,0,0,1-1.47-4.82h-.14q0,.33-1.53,4.82Z" transform="translate(-0.06 -4.55)"/><path class="cls-2" d="M230.05,36.94A3.37,3.37,0,0,1,228.52,40a6.79,6.79,0,0,1-3.76,1h-.58c0,1.08,0,2.51.09,4.28h-2.42c.07-1.66.11-3.62.11-5.88,0-2.08,0-3.86-.11-5.37h1.5l1.23,0,1.57,0a5,5,0,0,1,2.77.74A2.51,2.51,0,0,1,230.05,36.94Zm-2.23.47c0-1.23-.81-1.84-2.45-1.84a6.74,6.74,0,0,0-1.3.13c.07,1.08.1,2.32.1,3.69l.5,0C226.77,39.41,227.82,38.74,227.82,37.41Z" transform="translate(-0.06 -4.55)"/><path class="cls-2" d="M240.41,36.94A3.37,3.37,0,0,1,238.88,40a6.79,6.79,0,0,1-3.76,1h-.58c0,1.08,0,2.51.09,4.28h-2.42c.07-1.66.11-3.62.11-5.88,0-2.08,0-3.86-.11-5.37h1.5l1.23,0,1.57,0a5,5,0,0,1,2.77.74A2.51,2.51,0,0,1,240.41,36.94Zm-2.23.47c0-1.23-.81-1.84-2.45-1.84a6.56,6.56,0,0,0-1.29.13c.06,1.08.09,2.32.09,3.69l.5,0C237.13,39.41,238.18,38.74,238.18,37.41Z" transform="translate(-0.06 -4.55)"/><path class="cls-2" d="M257.35,39.41a6.23,6.23,0,0,1-1.62,4.4,5.27,5.27,0,0,1-4,1.74,5.08,5.08,0,0,1-3.82-1.6,5.67,5.67,0,0,1-1.53-4.07,6.21,6.21,0,0,1,1.62-4.4,5.28,5.28,0,0,1,4-1.75,5.12,5.12,0,0,1,3.82,1.6A5.67,5.67,0,0,1,257.35,39.41Zm-2.38.25a4.45,4.45,0,0,0-.93-2.93,2.82,2.82,0,0,0-2.28-1.12,2.65,2.65,0,0,0-2.14,1.13,4.52,4.52,0,0,0-.88,2.86,4.43,4.43,0,0,0,.93,2.92A2.83,2.83,0,0,0,252,43.65a2.65,2.65,0,0,0,2.14-1.13A4.52,4.52,0,0,0,255,39.66Z" transform="translate(-0.06 -4.55)"/><path class="cls-2" d="M269.06,45.24h-2.13a20.79,20.79,0,0,0-2.38-3.74,20.8,20.8,0,0,1-2.83-4.88h-.14A29.09,29.09,0,0,1,261.8,40c0,1.42,0,3.16.12,5.2h-2.13q.13-2.67.13-5.88c0-2.1,0-3.89-.13-5.37h2.57a16.1,16.1,0,0,0,2.13,3.66,21.15,21.15,0,0,1,2.61,4.6h.13A32,32,0,0,1,267,38.8c0-1.56,0-3.17-.12-4.81h2.16q-.12,2.15-.12,5.37T269.06,45.24Z" transform="translate(-0.06 -4.55)"/><path class="cls-2" d="M167.15,81.28q0,8.37-5,13.34-5.64,5.92-14.68,5.92a20.59,20.59,0,0,1-20.77-20.88A20.59,20.59,0,0,1,147.5,58.78a20.62,20.62,0,0,1,8.21,1.68A16.38,16.38,0,0,1,162,64.92l-3.52,3.52q-4-4.74-10.94-4.75a15.46,15.46,0,0,0-15.52,16,15.46,15.46,0,0,0,15.52,16,15.11,15.11,0,0,0,11.16-4.47,12.51,12.51,0,0,0,3.35-8.1H147.5v-4.8h19.37A16.89,16.89,0,0,1,167.15,81.28Z" transform="translate(-0.06 -4.55)"/><path class="cls-2" d="M173.24,75.56a14.35,14.35,0,0,1,20.21,0,14.49,14.49,0,0,1,4,10.41,14.49,14.49,0,0,1-4,10.41,14.35,14.35,0,0,1-20.21,0,14.46,14.46,0,0,1-4-10.41A14.46,14.46,0,0,1,173.24,75.56Zm3.82,17.58a8.63,8.63,0,0,0,12.56,0A9.78,9.78,0,0,0,192.27,86a9.82,9.82,0,0,0-2.65-7.18,8.65,8.65,0,0,0-12.56,0A9.82,9.82,0,0,0,174.41,86,9.78,9.78,0,0,0,177.06,93.14Z" transform="translate(-0.06 -4.55)"/><path class="cls-2" d="M203.1,75.56a14.35,14.35,0,0,1,20.21,0,14.49,14.49,0,0,1,4,10.41,14.49,14.49,0,0,1-4,10.41,14.35,14.35,0,0,1-20.21,0,14.49,14.49,0,0,1-4-10.41A14.49,14.49,0,0,1,203.1,75.56Zm3.83,17.58a8.63,8.63,0,0,0,12.56,0A9.78,9.78,0,0,0,222.14,86a9.82,9.82,0,0,0-2.65-7.18,8.65,8.65,0,0,0-12.56,0A9.82,9.82,0,0,0,204.28,86,9.78,9.78,0,0,0,206.93,93.14Z" transform="translate(-0.06 -4.55)"/><path class="cls-2" d="M242.46,112.6a12.4,12.4,0,0,1-7.93-2.43,14.28,14.28,0,0,1-4.41-5.56l4.69-2a7.64,7.64,0,0,0,2.88,3.74,8,8,0,0,0,4.77,1.51,8.8,8.8,0,0,0,6.67-2.54,9.57,9.57,0,0,0,2.43-6.9V95.85h-.22a10.49,10.49,0,0,1-3.8,3.35,11.4,11.4,0,0,1-5.53,1.34,12,12,0,0,1-9.15-4.19A14.74,14.74,0,0,1,229,86a14.76,14.76,0,0,1,3.85-10.39A12,12,0,0,1,242,71.4a11.29,11.29,0,0,1,5.53,1.34,10.49,10.49,0,0,1,3.8,3.35h.22v-3.8h4.91v26q0,7-4.07,10.69A14.35,14.35,0,0,1,242.46,112.6Zm.39-16.75A8.2,8.2,0,0,0,249,93.17a10.06,10.06,0,0,0,2.54-7.2,10,10,0,0,0-2.54-7.2,8.39,8.39,0,0,0-12.31,0A10,10,0,0,0,234.14,86a10,10,0,0,0,2.57,7.17A8.15,8.15,0,0,0,242.85,95.85Z" transform="translate(-0.06 -4.55)"/><path class="cls-2" d="M266.46,99.64h-5.13v-40h5.13Z" transform="translate(-0.06 -4.55)"/><path class="cls-2" d="M283.43,100.54a13.18,13.18,0,0,1-10.07-4.13A14.65,14.65,0,0,1,269.48,86a15,15,0,0,1,3.77-10.28,12.24,12.24,0,0,1,9.63-4.29,12.63,12.63,0,0,1,9.74,4q3.64,4,3.65,10.61l0,1H274.61a9.27,9.27,0,0,0,2.77,6.53,8.36,8.36,0,0,0,5.94,2.4q5.54,0,7.48-4.69l4.58,1.9A12.21,12.21,0,0,1,291,98.39,12.85,12.85,0,0,1,283.43,100.54Zm7.37-17.87a7.27,7.27,0,0,0-2.15-4.46c-1.32-1.42-3.28-2.12-5.89-2.12a7.39,7.39,0,0,0-4.94,1.78,9.14,9.14,0,0,0-2.87,4.8Z" transform="translate(-0.06 -4.55)"/><path class="cls-2" d="M316.48,99.64h-5.13v-40H325a12.62,12.62,0,0,1,8.79,3.38,11.63,11.63,0,0,1,0,17A12.61,12.61,0,0,1,325,83.45h-8.49Zm0-21.1h8.6a6.63,6.63,0,0,0,5.19-2.17,6.87,6.87,0,0,0,0-9.61,6.63,6.63,0,0,0-5.19-2.17h-8.6Z" transform="translate(-0.06 -4.55)"/><path class="cls-2" d="M346,99.64h-5.14v-40H346Z" transform="translate(-0.06 -4.55)"/><path class="cls-2" d="M359.19,100.54A10.84,10.84,0,0,1,351.9,98,8.34,8.34,0,0,1,349,91.38a8.22,8.22,0,0,1,3.46-7A14,14,0,0,1,361,81.84a14.67,14.67,0,0,1,7.43,1.67v-.78a6.13,6.13,0,0,0-2.06-4.83,7.44,7.44,0,0,0-5.08-1.81,7.85,7.85,0,0,0-4.05,1.06,5.45,5.45,0,0,0-2.49,2.9L350,78a10.71,10.71,0,0,1,3.74-4.55,12,12,0,0,1,7.37-2.09,12.63,12.63,0,0,1,8.71,3.07q3.47,3.06,3.46,8.65V99.64H368.4V95.85h-.22A10.09,10.09,0,0,1,359.19,100.54Zm.84-4.69a8.35,8.35,0,0,0,5.77-2.37,7.36,7.36,0,0,0,2.6-5.61c-1.45-1.2-3.63-1.79-6.53-1.79a8.49,8.49,0,0,0-5.64,1.62,4.87,4.87,0,0,0-1.9,3.79,3.69,3.69,0,0,0,1.73,3.19A6.92,6.92,0,0,0,360,95.85Z" transform="translate(-0.06 -4.55)"/><path class="cls-2" d="M384.48,111.7h-5.3l6.36-13.79L374.26,72.29h5.59L388,91.94h.11L396,72.29h5.58Z" transform="translate(-0.06 -4.55)"/><path class="cls-1" d="M30.93,79q0-19.16,0-38.3a5.73,5.73,0,0,1,1.41-4.18c.43-.46.74-.59,1.27,0Q46.5,49.61,59.42,62.71q8.37,8.5,16.75,17c.54.54.59.83,0,1.4q-20.55,20.43-41,40.91a1.42,1.42,0,0,1-2.22.13,5.22,5.22,0,0,1-2-4.43q0-11.34,0-22.68V79Z" transform="translate(-0.06 -4.55)"/><path class="cls-1" d="M35.84,35a4.65,4.65,0,0,1,2.49.69Q64.57,50.43,90.8,65.11c.8.45.78.7.16,1.31Q85.1,72.19,79.3,78c-.42.42-.68.66-1.24.09Q57.2,56.83,36.29,35.59C36.18,35.47,36.08,35.33,35.84,35Z" transform="translate(-0.06 -4.55)"/><path class="cls-1" d="M39.76,121.67q19-19.24,38.05-38.5c.79-.8,1.15-.69,1.86,0,3.21,3.35,6.48,6.65,9.76,9.94.57.58.62.81-.16,1.24q-24.45,13.38-48.86,26.8A6.12,6.12,0,0,0,39.76,121.67Z" transform="translate(-0.06 -4.55)"/><path class="cls-1" d="M112.26,79.34a4,4,0,0,1-1.76,3.2A22.17,22.17,0,0,1,108.07,84c-4.92,2.73-9.86,5.42-14.78,8.17A1.11,1.11,0,0,1,91.68,92Q86.43,86.56,81.1,81.21c-.51-.52-.53-.81,0-1.33q6.21-6.1,12.35-12.28a1,1,0,0,1,1.43-.2c4.86,2.75,9.75,5.47,14.63,8.21C111,76.45,112.2,77.55,112.26,79.34Z" transform="translate(-0.06 -4.55)"/></svg>