<?xml version="1.0" encoding="utf-8"?>
<!-- Generator: Adobe Illustrator 23.0.1, SVG Export Plug-In . SVG Version: 6.00 Build 0)  -->
<svg version="1.1" xmlns="http://www.w3.org/2000/svg" xmlns:xlink="http://www.w3.org/1999/xlink" x="0px" y="0px"
	 viewBox="0 0 214.7 104.3" style="enable-background:new 0 0 214.7 104.3;" xml:space="preserve">
<style type="text/css">
	.st0{fill:#3C3C3B;}
</style>
<g id="Fon">
</g>
<g id="Menu">
</g>
<g id="logo__x2B__slogan__x2B__contacts">
	<g>
		<g>
			<g>
				<g>
					<g>
						<path class="st0" d="M25.9,19.3h22.7v8.4H34.8V36h12v8.4h-12v14.1h-8.9V19.3z"/>
					</g>
					<g>
						<path class="st0" d="M53.7,19.3h8.9v39.1h-8.9V19.3z"/>
					</g>
					<g>
						<path class="st0" d="M67.8,19.3h0.8c2.1,0,9-0.2,11.6-0.2c15.7,0,22,9,22,19.4c0,11-7.5,20-22.4,20c-2.1,0-7.2-0.1-11-0.1h-1
							V19.3z M76.8,27.7v22.4c1.2,0.1,2,0.1,3.2,0.1c7.7,0,12.6-4.2,12.6-11.6c0-7.2-5.3-11-12.6-11C79.1,27.5,77.9,27.5,76.8,27.7z
							"/>
					</g>
					<g>
						<path class="st0" d="M105.7,19.3h23.2v8.4h-14.3v6.9h12.6V43h-12.6v7.1h14.8v8.4h-23.8V19.3z"/>
					</g>
					<g>
						<path class="st0" d="M134.6,19.3h8.9v30.8h15.9v8.4h-24.9V19.3z"/>
					</g>
					<g>
						<path class="st0" d="M165.1,19.3h23.2v8.4H174v6.9h12.6V43H174v7.1h14.8v8.4h-23.8V19.3z"/>
					</g>
				</g>
				<g>
					<path class="st0" d="M214.7,77.6H0V0h214.7V77.6z M6.9,70.7h201V6.9H6.9V70.7z"/>
				</g>
			</g>
			<g>
				<rect x="142.3" y="99.5" class="st0" width="15.9" height="1.2"/>
				<rect x="56.5" y="99.5" class="st0" width="15.9" height="1.2"/>
				<g>
					<path class="st0" d="M79,94.1h6v2.2h-3.7V98h3.2v2.2h-3.2v1.8h3.8v2.2H79V94.1z"/>
					<path class="st0" d="M86.7,96.8c0-1.5,1.2-2.9,3.2-2.9c1.3,0,2.3,0.4,3,1.1l-1.2,1.7c-0.4-0.4-0.8-0.7-1.5-0.7
						c-0.6,0-1,0.3-1,0.7c0,1.7,4.2,1.3,4.2,4.5c0,1.8-1.5,3-3.4,3c-1.3,0-2.9-0.6-3.4-1.6l1.3-1.6c0.6,0.7,1.4,1.1,2.2,1.1
						c0.6,0,0.9-0.3,0.9-0.8C90.9,99.9,86.7,100.1,86.7,96.8z"/>
					<path class="st0" d="M94.1,94.1h8.3v2.2h-3v7.9h-2.3v-7.9h-3V94.1z"/>
					<path class="st0" d="M103.5,101.4c0.8,0,1.3,0.7,1.3,1.3c0,0.8-0.5,1.5-1.3,1.5c-0.9,0-1.5-0.7-1.5-1.5
						C102.1,102.1,102.6,101.4,103.5,101.4z"/>
					<path class="st0" d="M108.2,102.4c1.6-1.6,3.8-3.5,3.8-5.3c0-0.7-0.3-1-0.9-1c-0.6,0-0.9,0.5-1.1,1.1l-1.8-0.8
						c0.3-1.4,1.4-2.4,3.2-2.4c2,0,3,1.3,3,2.7c0,2.8-2.6,4.9-3.4,5.4h3.7v2h-6.5V102.4z"/>
					<path class="st0" d="M119.2,94c2.3,0,3.5,2,3.5,5.1s-1.1,5.1-3.4,5.1s-3.5-2-3.5-5.1S116.9,94,119.2,94z M119.2,102.2
						c0.8,0,1.1-0.8,1.1-3.1c0-2.4-0.4-3.1-1.2-3.1c-0.8,0-1.2,0.8-1.2,3.1C118,101.4,118.5,102.2,119.2,102.2z"/>
					<path class="st0" d="M126,94.1h1.5v10h-2.2v-7l-1,0.7l-1.1-1.8L126,94.1z"/>
					<path class="st0" d="M129.2,102.4c1.6-1.6,3.8-3.5,3.8-5.3c0-0.7-0.3-1-0.9-1c-0.6,0-0.9,0.5-1.1,1.1l-1.8-0.8
						c0.3-1.4,1.4-2.4,3.2-2.4c2,0,3,1.3,3,2.7c0,2.8-2.6,4.9-3.4,5.4h3.7v2h-6.5V102.4z"/>
				</g>
			</g>
		</g>
	</g>
</g>
</svg>
