<?xml version="1.0" encoding="UTF-8"?>
<svg width="752pt" height="752pt" version="1.1" viewBox="0 0 752 752" xmlns="http://www.w3.org/2000/svg">
 <path d="m355.16 513.81c37.887 0 72.457-13.262 99.926-35.52l72.457 72.461c3.3164 3.3164 7.5781 4.7344 11.84 4.7344s8.5234-1.4219 11.84-4.7344c6.6289-6.6289 6.6289-17.051 0-23.68l-72.934-71.984c22.258-27.469 35.52-62.039 35.52-99.926 0-87.613-71.039-158.65-158.65-158.65-87.613 0-158.65 71.039-158.65 158.65 0 87.613 71.035 158.65 158.65 158.65zm0-284.15c69.145 0 125.5 56.355 125.5 125.5 0 69.145-56.355 125.5-125.5 125.5-69.145 0-125.5-56.355-125.5-125.5 0-69.145 56.355-125.5 125.5-125.5z"/>
</svg>
